<svg width="1200" height="630" viewBox="0 0 1200 630" fill="none" xmlns="http://www.w3.org/2000/svg" role="img" aria-labelledby="title desc">
  <title id="title">AVC premium home visual</title>
  <desc id="desc">Premium botanical illustration for AloeVera Centar homepage and previews.</desc>
  <defs>
    <linearGradient id="bg" x1="140" y1="32" x2="1034" y2="646" gradientUnits="userSpaceOnUse">
      <stop stop-color="#FBF7F0"/>
      <stop offset="1" stop-color="#EFE5D5"/>
    </linearGradient>
    <radialGradient id="glowLeft" cx="0" cy="0" r="1" gradientUnits="userSpaceOnUse" gradientTransform="translate(208 164) rotate(31.4) scale(305 278)">
      <stop stop-color="#D9EBD9"/>
      <stop offset="1" stop-color="#D9EBD9" stop-opacity="0"/>
    </radialGradient>
    <radialGradient id="glowRight" cx="0" cy="0" r="1" gradientUnits="userSpaceOnUse" gradientTransform="translate(969 118) rotate(143.9) scale(267 246)">
      <stop stop-color="#E8D3AB"/>
      <stop offset="1" stop-color="#E8D3AB" stop-opacity="0"/>
    </radialGradient>
    <linearGradient id="card" x1="823" y1="130" x2="1119" y2="508" gradientUnits="userSpaceOnUse">
      <stop stop-color="#FFFDF8"/>
      <stop offset="1" stop-color="#F7EFE1"/>
    </linearGradient>
    <linearGradient id="badge" x1="0" y1="0" x2="1" y2="1">
      <stop stop-color="#2F7A57"/>
      <stop offset="1" stop-color="#587F60"/>
    </linearGradient>
    <filter id="softShadow" x="48" y="28" width="1104" height="574" filterUnits="userSpaceOnUse" color-interpolation-filters="sRGB">
      <feFlood flood-opacity="0" result="BackgroundImageFix"/>
      <feColorMatrix in="SourceAlpha" type="matrix" values="0 0 0 0 0 0 0 0 0 0 0 0 0 0 0 0 0 0 127 0" result="hardAlpha"/>
      <feOffset dy="24"/>
      <feGaussianBlur stdDeviation="24"/>
      <feColorMatrix type="matrix" values="0 0 0 0 0.188235 0 0 0 0 0.211765 0 0 0 0 0.141176 0 0 0 0.08 0"/>
      <feBlend mode="normal" in2="BackgroundImageFix" result="effect1_dropShadow_1_1"/>
      <feBlend mode="normal" in="SourceGraphic" in2="effect1_dropShadow_1_1" result="shape"/>
    </filter>
  </defs>

  <g filter="url(#softShadow)">
    <rect x="96" y="76" width="1008" height="478" rx="36" fill="url(#bg)"/>
    <rect x="96" y="76" width="1008" height="478" rx="36" stroke="#DECFB8"/>
  </g>

  <circle cx="208" cy="164" r="208" fill="url(#glowLeft)"/>
  <circle cx="969" cy="118" r="192" fill="url(#glowRight)"/>
  <circle cx="954" cy="431" r="146" fill="#F6EBDD"/>
  <circle cx="954" cy="431" r="145" stroke="#E7D8C2"/>

  <rect x="148" y="118" width="122" height="54" rx="27" fill="#FFFDF8" stroke="#DDCFBB"/>
  <rect x="160" y="129" width="36" height="32" rx="12" fill="url(#badge)"/>
  <text x="178" y="150" text-anchor="middle" font-family="Avenir Next, Avenir, Helvetica, Arial, sans-serif" font-size="14" font-weight="700" fill="#FFFDF8">AVC</text>
  <text x="212" y="141" font-family="Avenir Next, Avenir, Helvetica, Arial, sans-serif" font-size="15" font-weight="700" letter-spacing="0.08em" fill="#203629">ALOEVERA</text>
  <text x="212" y="158" font-family="Avenir Next, Avenir, Helvetica, Arial, sans-serif" font-size="11" font-weight="600" letter-spacing="0.12em" fill="#6A7A70">CENTER</text>

  <path d="M171 386C253 312 339 285 450 282" stroke="#D8C6A7" stroke-width="2" stroke-linecap="round" stroke-dasharray="1 10"/>
  <path d="M180 416C264 343 350 318 473 316" stroke="#D8C6A7" stroke-width="2" stroke-linecap="round" stroke-dasharray="1 10"/>

  <g opacity="0.92">
    <path d="M376 434C427 374 449 321 452 274C412 305 383 352 376 434Z" stroke="#3D744F" stroke-width="4.5" stroke-linecap="round" stroke-linejoin="round"/>
    <path d="M452 274C455 336 486 389 540 431C541 360 513 314 452 274Z" stroke="#3D744F" stroke-width="4.5" stroke-linecap="round" stroke-linejoin="round"/>
    <path d="M431 444C389 407 330 388 273 394C312 437 368 456 431 444Z" stroke="#3D744F" stroke-width="4.5" stroke-linecap="round" stroke-linejoin="round"/>
    <path d="M442 451C494 461 551 448 601 417C547 396 490 403 442 451Z" stroke="#3D744F" stroke-width="4.5" stroke-linecap="round" stroke-linejoin="round"/>
    <path d="M443 252C421 306 421 362 442 451" stroke="#3D744F" stroke-width="4.5" stroke-linecap="round"/>
    <path d="M404 333C409 359 422 383 443 404" stroke="#3D744F" stroke-width="4.5" stroke-linecap="round"/>
    <path d="M490 328C483 357 468 382 443 404" stroke="#3D744F" stroke-width="4.5" stroke-linecap="round"/>
  </g>

  <rect x="739" y="132" width="288" height="162" rx="28" fill="url(#card)" stroke="#E3D5C1"/>
  <rect x="772" y="162" width="124" height="16" rx="8" fill="#DDEDDC"/>
  <rect x="772" y="192" width="186" height="24" rx="12" fill="#1F3428" fill-opacity="0.08"/>
  <rect x="772" y="228" width="210" height="13" rx="6.5" fill="#6A7A70" fill-opacity="0.16"/>
  <rect x="772" y="250" width="170" height="13" rx="6.5" fill="#6A7A70" fill-opacity="0.12"/>

  <rect x="846" y="318" width="218" height="144" rx="26" fill="#FFFDF8" stroke="#E4D6C2"/>
  <rect x="873" y="344" width="36" height="36" rx="18" fill="#E7F2E7"/>
  <path d="M892 354V370M884 362H900" stroke="#2F7A57" stroke-width="3.2" stroke-linecap="round"/>
  <rect x="923" y="350" width="98" height="12" rx="6" fill="#1F3428" fill-opacity="0.12"/>
  <rect x="923" y="372" width="81" height="10" rx="5" fill="#6A7A70" fill-opacity="0.14"/>
  <rect x="873" y="407" width="164" height="18" rx="9" fill="#F1E6D6"/>
  <rect x="873" y="438" width="128" height="12" rx="6" fill="#6A7A70" fill-opacity="0.12"/>

  <rect x="706" y="366" width="122" height="92" rx="24" fill="#FFFDF8" stroke="#E4D6C2"/>
  <rect x="729" y="390" width="28" height="28" rx="14" fill="#F2EFE5"/>
  <path d="M743 397L748 407L759 409L751 417L753 428L743 423L733 428L735 417L727 409L738 407L743 397Z" fill="#B6853B"/>
  <rect x="770" y="395" width="32" height="10" rx="5" fill="#1F3428" fill-opacity="0.1"/>
  <rect x="770" y="413" width="24" height="10" rx="5" fill="#6A7A70" fill-opacity="0.12"/>

  <rect x="171" y="465" width="142" height="42" rx="21" fill="#FFFDF8" stroke="#DDD1BD"/>
  <circle cx="196" cy="486" r="6" fill="#2F7A57"/>
  <rect x="212" y="481" width="68" height="10" rx="5" fill="#1F3428" fill-opacity="0.14"/>

  <rect x="329" y="465" width="158" height="42" rx="21" fill="#FFFDF8" stroke="#DDD1BD"/>
  <circle cx="354" cy="486" r="6" fill="#B6853B"/>
  <rect x="370" y="481" width="86" height="10" rx="5" fill="#1F3428" fill-opacity="0.14"/>

  <rect x="503" y="465" width="130" height="42" rx="21" fill="#FFFDF8" stroke="#DDD1BD"/>
  <circle cx="528" cy="486" r="6" fill="#6A7A70"/>
  <rect x="544" y="481" width="58" height="10" rx="5" fill="#1F3428" fill-opacity="0.14"/>
</svg>
